<svg width="27" height="27" viewBox="0 0 27 27" fill="none" xmlns="http://www.w3.org/2000/svg">
<g clip-path="url(#clip0_40004204_2578)">
<path d="M10.8346 13.8614C9.17333 14.1344 7.76846 14.5309 6.72264 14.9861C6.35287 15.1472 6.01331 15.6282 5.98069 16.0306C5.95968 16.2957 5.94873 16.5643 5.94873 16.8347C5.94873 17.1049 5.9599 17.3735 5.98069 17.6386C6.0131 18.0408 6.35287 18.522 6.72264 18.6829C7.76846 19.1387 9.17267 19.5347 10.8346 19.808C11.2323 19.8732 11.5268 19.5906 11.499 19.1886C11.4456 18.4077 11.4176 17.6182 11.4176 16.8351C11.4176 16.0518 11.4456 15.2619 11.499 14.4817C11.5268 14.0791 11.2326 13.7966 10.8346 13.8614Z" fill="white"/>
<path d="M12.2863 26.0951C12.6628 26.2409 12.8467 26.0336 12.7105 25.6538C12.3057 24.5241 11.9938 23.1904 11.7775 21.7599C11.7177 21.361 11.3536 20.9965 10.9543 20.9365C9.52403 20.7202 8.19032 20.4078 7.06043 20.003C6.68081 19.8673 6.47305 20.0514 6.61885 20.4275C7.62658 23.0222 9.69261 25.0885 12.2863 26.0951Z" fill="white"/>
<path d="M14.0323 7.6776C13.5765 8.72386 13.1802 10.1274 12.9075 11.7893C12.8418 12.1875 13.1238 12.4818 13.5261 12.454C14.3071 12.4001 15.0967 12.3725 15.8801 12.3725C16.6636 12.3725 17.4526 12.4001 18.2333 12.454C18.6357 12.4818 18.9179 12.1875 18.8525 11.7893C18.5797 10.1283 18.183 8.72386 17.728 7.6776C17.5669 7.30805 17.0859 6.96849 16.6835 6.93565C16.4186 6.91398 16.15 6.90369 15.8798 6.90369C15.609 6.90369 15.3408 6.91463 15.0755 6.93565C14.674 6.96871 14.1932 7.30827 14.0323 7.6776Z" fill="white"/>
<path d="M12.2864 7.5746C9.69273 8.58189 7.6267 10.6479 6.61919 13.2424C6.47382 13.6186 6.68093 13.8025 7.06077 13.6667C8.19066 13.2615 9.52437 12.9499 10.9544 12.7336C11.3535 12.6734 11.7178 12.3089 11.7778 11.91C11.9941 10.4796 12.3061 9.14585 12.7109 8.01618C12.8473 7.63634 12.6629 7.42901 12.2864 7.5746Z" fill="white"/>
<path d="M19.9816 11.9097C20.0414 12.3084 20.4059 12.6729 20.805 12.7334C22.235 12.9494 23.569 13.2612 24.6986 13.6658C25.0785 13.8019 25.2864 13.6176 25.14 13.2415C24.1327 10.6474 22.0671 8.58138 19.4724 7.57409C19.0965 7.4285 18.9126 7.63604 19.0481 8.01567C19.4533 9.14555 19.7653 10.4795 19.9816 11.9097Z" fill="white"/>
<path d="M25.7789 16.0314C25.7467 15.629 25.4062 15.1478 25.0367 14.9868C23.9909 14.5313 22.586 14.1354 20.9248 13.8627C20.5272 13.797 20.2327 14.0792 20.2603 14.4818C20.314 15.2623 20.3416 16.0524 20.3416 16.8353C20.3416 17.6186 20.314 18.4085 20.2603 19.1894C20.2327 19.5918 20.5272 19.8742 20.9248 19.8083C22.586 19.5355 23.9909 19.1388 25.0367 18.6837C25.4069 18.5228 25.7462 18.0407 25.7789 17.6392C25.801 17.3736 25.8108 17.1054 25.8108 16.8346C25.8106 16.5647 25.7997 16.2958 25.7789 16.0314Z" fill="white"/>
<path d="M19.2463 16.8347C19.2463 15.9741 19.2143 15.1439 19.1541 14.3499C19.1241 13.9479 18.7664 13.59 18.3647 13.5602C17.5706 13.5006 16.7411 13.468 15.8796 13.468C15.0194 13.468 14.189 13.5002 13.3952 13.5602C12.993 13.5904 12.6351 13.9479 12.6049 14.3499C12.5453 15.1437 12.5127 15.9741 12.5127 16.8347C12.5127 17.6951 12.5451 18.5255 12.6049 19.3195C12.6355 19.7213 12.993 20.0803 13.3952 20.1096C14.1888 20.169 15.0192 20.2018 15.8796 20.2018C16.74 20.2018 17.5706 20.1692 18.3647 20.1096C18.7666 20.0788 19.1246 19.7213 19.1541 19.3195C19.2145 18.5255 19.2463 17.6953 19.2463 16.8347Z" fill="white"/>
<path d="M24.6988 20.0035C23.5691 20.4092 22.2354 20.7207 20.8049 20.937C20.406 20.9966 20.0417 21.3613 19.9815 21.7604C19.7652 23.1902 19.4532 24.5246 19.0486 25.6543C18.9125 26.0337 19.0966 26.2421 19.4725 26.0956C22.0672 25.0883 24.1333 23.0225 25.1403 20.4285C25.2861 20.0517 25.0786 19.8678 24.6988 20.0035Z" fill="white"/>
<path d="M18.233 21.2152C17.4525 21.2688 16.6626 21.2968 15.8787 21.2968C15.0956 21.2968 14.307 21.2688 13.5256 21.2152C13.1235 21.1876 12.841 21.482 12.9067 21.8798C13.1799 23.5415 13.5762 24.9457 14.0311 25.9917C14.192 26.3615 14.6735 26.7011 15.0754 26.7337C15.3405 26.7556 15.6087 26.7659 15.8798 26.7659C16.1499 26.7659 16.4183 26.7543 16.6832 26.7337C17.0858 26.7015 17.5666 26.3617 17.7277 25.9917C18.1835 24.9457 18.5796 23.5415 18.8526 21.8798C18.9174 21.4818 18.6352 21.1876 18.233 21.2152Z" fill="white"/>
<path d="M8.2219 4.86449C8.30005 4.92426 8.36573 4.90105 8.40207 4.87544C8.3758 4.90893 8.33027 4.97505 8.26108 5.09546C8.26108 5.09546 8.01523 5.46501 8.09689 5.58871L8.09842 5.5909C8.18117 5.71634 8.61619 5.63534 8.61619 5.63534C8.75367 5.61892 8.83227 5.60316 8.87474 5.59265C8.83599 5.61607 8.78892 5.66708 8.81322 5.76166L9.03456 6.50405C9.03806 6.51521 9.04266 6.52506 9.04704 6.5347L9.63004 6.03379L9.67777 5.40306C9.68127 5.35467 9.69134 5.2949 9.69134 5.2949C9.69134 5.2949 9.80759 5.21565 9.84394 5.19923L11.901 3.93514L12.9761 7.05005C13.0055 7.13325 13.083 7.1547 13.1502 7.09734L13.7152 6.61351C13.7825 6.55571 13.8247 6.43859 13.81 6.35036L13.2509 3.03731L15.2202 1.65916C15.5829 1.40411 15.8721 1.01288 15.8656 0.783228C15.8629 0.696533 15.8336 0.608524 15.7863 0.528396L15.7852 0.526425C15.7305 0.451333 15.6613 0.389376 15.5816 0.353253C15.3745 0.257362 14.8996 0.367483 14.5222 0.600204L12.479 1.86473L9.65544 0.0410612C9.58035 -0.00666515 9.45665 -0.0143276 9.37674 0.0248605L8.70945 0.352596C8.62976 0.391784 8.61859 0.471256 8.68362 0.531242L11.1205 2.74986L9.14643 4.13984C9.11753 4.16699 8.99843 4.24295 8.99843 4.24295C8.99843 4.24295 8.93911 4.22785 8.89313 4.21187L8.2948 4.00651L7.60474 4.34476C7.61196 4.35264 7.61875 4.36074 7.6286 4.36774L8.2219 4.86449Z" fill="white"/>
<path d="M1.72388 15.0819C1.75737 14.7765 1.82064 14.4824 1.88742 14.1733C1.91237 14.0577 1.93711 13.9426 1.96032 13.8274C1.98593 13.6768 2.03081 13.536 2.07854 13.3869C2.1024 13.3123 2.12605 13.2378 2.14772 13.163L2.35154 12.5119C2.4135 12.3667 2.47261 12.2213 2.5315 12.0771C2.64557 11.7975 2.75306 11.5335 2.875 11.2835L3.17712 10.7081C3.20471 10.6573 3.23361 10.6017 3.26229 10.5461C3.32928 10.4172 3.39233 10.2952 3.46326 10.1939C3.55193 10.0599 3.63096 9.93551 3.7089 9.8127C3.85164 9.58786 3.98672 9.37528 4.12946 9.18174L4.8042 8.31369C4.95351 8.14643 5.1107 7.97764 5.26176 7.81519L5.47784 7.58225C5.64707 7.38741 5.8301 7.22299 6.00699 7.06405L6.66443 6.47229C6.89124 6.29299 7.08587 6.1463 7.24481 6.02655C7.29757 5.9867 7.3464 5.94992 7.39128 5.91577L7.6645 6.29145C7.61436 6.32648 7.56029 6.36392 7.5014 6.40442C7.33238 6.52111 7.12637 6.66341 6.89518 6.83089L6.8711 6.84972L6.25329 7.36552C6.08449 7.5041 5.89337 7.66129 5.70596 7.86161L5.05378 8.51095L5.02882 8.5381L4.35868 9.32974C4.19908 9.527 4.057 9.73126 3.91973 9.92895C3.84157 10.0415 3.7621 10.1558 3.67913 10.2696C3.58192 10.395 3.50267 10.5341 3.42626 10.668C3.39955 10.7147 3.37285 10.7618 3.34504 10.8082L3.03351 11.3443C2.8958 11.5989 2.77889 11.8538 2.66614 12.1001C2.60156 12.2411 2.53632 12.3834 2.46736 12.5257L2.44941 12.5686L2.22676 13.1899C2.20311 13.2602 2.18056 13.321 2.15823 13.3814C2.1024 13.5327 2.03891 13.7044 2.00082 13.89C1.97783 13.9835 1.94937 14.0923 1.92091 14.2018C1.84713 14.4846 1.77138 14.7754 1.72388 15.0819Z" fill="white"/>
<path d="M7.48232 5.29626C7.48232 5.29626 7.38248 5.37223 7.19486 5.51476C7.00746 5.65925 6.73227 5.86044 6.3822 6.13739C6.20815 6.29414 6.01528 6.46775 5.80533 6.65647C5.59647 6.84562 5.36418 7.0455 5.15598 7.28545C4.93968 7.52036 4.70587 7.76643 4.46789 8.03287C4.24853 8.31529 4.01799 8.61215 3.77717 8.92194C3.54467 9.23698 3.33713 9.59098 3.10484 9.94258C2.98356 10.1155 2.8938 10.3121 2.79002 10.5039C2.68844 10.6968 2.58576 10.8927 2.48177 11.0915C2.28539 11.4943 2.12536 11.9287 1.94036 12.3602C1.87009 12.585 1.79915 12.8123 1.72713 13.0417C1.66057 13.2723 1.57213 13.4986 1.53119 13.741C1.43486 14.2207 1.30832 14.7021 1.27329 15.2058C1.24921 15.4567 1.21046 15.7065 1.19885 15.96C1.19623 16.2144 1.19404 16.4701 1.19141 16.7265C1.19316 16.8548 1.18353 16.9829 1.19469 17.1114L1.23104 17.4967C1.2584 17.7537 1.27395 18.0121 1.31182 18.268L1.46923 19.031C1.499 19.1571 1.51389 19.2871 1.55593 19.4101L1.67634 19.7812C1.76084 20.0266 1.82871 20.2782 1.92723 20.5175L2.2508 21.2237C2.34779 21.4635 2.48615 21.6813 2.62101 21.8998C2.75872 22.1216 2.87716 22.3317 3.02997 22.5592C3.17928 22.7565 3.32793 22.9526 3.47593 23.1483C3.64056 23.3399 3.8133 23.528 3.98034 23.7156C4.33084 24.0713 4.68726 24.4065 5.07148 24.6979C5.83116 25.2892 6.64492 25.7475 7.44948 26.0929C8.25886 26.4323 9.06035 26.6438 9.80537 26.7933C10.1819 26.8467 10.5392 26.9203 10.8851 26.9391C11.0574 26.9538 11.2253 26.9684 11.3882 26.982C11.5518 26.9862 11.7105 26.9892 11.8644 26.9927C11.9859 26.9938 12.1039 26.9993 12.2186 26.9993C12.2495 26.9993 12.2804 26.9989 12.3108 26.998C12.454 26.9914 12.5923 26.9851 12.7254 26.9789C12.8581 26.973 12.9855 26.9671 13.1068 26.9616C13.2279 26.9481 13.3435 26.9356 13.4529 26.9233C13.6716 26.8971 13.868 26.8822 14.0364 26.8544C14.2052 26.8248 14.3481 26.7996 14.4644 26.7795C14.6964 26.7388 14.8201 26.7171 14.8201 26.7171C14.8201 26.7171 14.6956 26.7335 14.462 26.7644C14.3455 26.7797 14.2017 26.7985 14.0324 26.8211C13.8632 26.8423 13.6666 26.8484 13.4481 26.8653C13.3387 26.8728 13.2237 26.8804 13.1029 26.8885C12.9814 26.8892 12.8548 26.8894 12.7228 26.8898C12.5908 26.8905 12.4537 26.8907 12.311 26.8914C12.1687 26.8898 12.0214 26.8756 11.8692 26.8679C11.7175 26.8581 11.5605 26.848 11.3992 26.8375C11.2389 26.8167 11.0741 26.7957 10.9046 26.7738C10.5644 26.7414 10.2156 26.6532 9.84871 26.5857C9.12362 26.4077 8.34927 26.1674 7.57799 25.8053C6.81108 25.4366 6.04571 24.9613 5.34273 24.3649C4.98785 24.0716 4.65945 23.734 4.34398 23.3863C4.19642 23.2061 4.04777 23.0249 3.89846 22.8425C3.75878 22.6411 3.61867 22.4384 3.47768 22.2354C3.00676 21.4234 2.54592 20.5381 2.32874 19.5916L2.23022 19.2416C2.19585 19.1258 2.18775 19.0027 2.16477 18.8838L2.0483 18.1688C2.02334 17.9289 2.01983 17.6872 2.00429 17.4479L1.98481 17.0895C1.97911 16.9704 1.99444 16.8506 1.99794 16.7316C2.00998 16.4938 2.02202 16.2571 2.03428 16.0216C2.05508 15.7871 2.10215 15.5555 2.13368 15.3243C2.18381 14.8599 2.32327 14.4168 2.42989 13.9777C2.47542 13.7554 2.56847 13.5481 2.63896 13.3375C2.71428 13.1284 2.78827 12.9209 2.86183 12.7157C3.05208 12.3228 3.21518 11.9283 3.41244 11.5635C3.51687 11.384 3.61954 11.2069 3.72091 11.0324C3.82446 10.8597 3.91313 10.6819 4.0331 10.5267C4.26341 10.2112 4.46614 9.89289 4.69339 9.61156C4.92655 9.33571 5.15051 9.07147 5.36353 8.82014C5.59669 8.58741 5.8178 8.36717 6.02601 8.16007C6.22851 7.94398 6.44022 7.78023 6.63069 7.6215C6.8205 7.46234 6.9952 7.31654 7.15283 7.18474C7.50312 6.931 7.79473 6.73594 7.98541 6.60086C8.17895 6.46666 8.28206 6.39463 8.28206 6.39463L7.48232 5.29626Z" fill="white"/>
</g>
<defs>
<clipPath id="clip0_40004204_2578">
<rect width="27" height="27" fill="white"/>
</clipPath>
</defs>
</svg>
