<svg width="27" height="27" viewBox="0 0 27 27" fill="none" xmlns="http://www.w3.org/2000/svg">
<path fill-rule="evenodd" clip-rule="evenodd" d="M16.8751 1.6875C15.4776 1.6875 14.3438 2.82129 14.3438 4.21875L14.5442 4.60371C14.7182 4.74082 15.003 4.85684 15.3721 4.94121C15.8415 5.04141 16.3266 5.08359 16.8065 5.0625H16.8329H16.8751L16.9173 5.06777H16.9436H17.3708C17.6555 5.05723 18.0247 5.02559 18.378 4.94648C18.7419 4.86738 19.0266 4.74609 19.2059 4.60898L19.4063 4.21875C19.4063 2.82129 18.2725 1.6875 16.8751 1.6875ZM16.8751 6.75H16.8645H16.3161C15.8731 6.73418 15.4354 6.68145 15.003 6.58652C14.5231 6.48105 13.9641 6.29121 13.5106 5.93789C12.9674 5.53184 12.651 4.89375 12.6563 4.21875C12.6563 1.88789 14.5442 0 16.8751 0C19.2059 0 21.0938 1.88789 21.0938 4.21875C21.0938 4.9834 20.7299 5.5582 20.2395 5.93262C19.786 6.28594 19.2217 6.47578 18.7471 6.58125C18.1354 6.71309 17.5079 6.77109 16.8856 6.75H16.8751Z" fill="white"/>
<path fill-rule="evenodd" clip-rule="evenodd" d="M10.125 1.6875C8.72754 1.6875 7.59375 2.82129 7.59375 4.21875L7.79414 4.60371C7.96816 4.74082 8.25293 4.85684 8.62207 4.94121C9.09141 5.04141 9.57656 5.08359 10.0564 5.0625H10.0828H10.125L10.1672 5.06777H10.1936H10.2832C10.7367 5.07305 11.1902 5.03086 11.6332 4.94121C11.9971 4.86211 12.2818 4.74082 12.4611 4.60371L12.6562 4.21875C12.6562 2.82129 11.5225 1.6875 10.125 1.6875ZM10.125 6.75H10.1145H9.56602C9.12305 6.73418 8.68535 6.68145 8.25293 6.58652C7.77305 6.48105 7.21406 6.29121 6.76055 5.93789C6.21738 5.53184 5.90098 4.89375 5.90625 4.21875C5.90625 1.88789 7.79414 0 10.125 0C12.4559 0 14.3438 1.88789 14.3438 4.21875C14.3438 4.9834 13.9799 5.5582 13.4895 5.93262C13.0359 6.28594 12.4717 6.47578 11.9971 6.58125C11.3854 6.71309 10.7631 6.77109 10.1355 6.75H10.125ZM25.3125 24.4688V11.8125H14.3438V27H22.7812C24.1787 27 25.3125 25.8662 25.3125 24.4688ZM12.6562 27H4.21875C2.82129 27 1.6875 25.8662 1.6875 24.4688V11.8125H12.6562V27Z" fill="white"/>
<path d="M0 6.75C0 5.8166 0.754102 5.0625 1.6875 5.0625H25.3125C26.2459 5.0625 27 5.8166 27 6.75V8.4375C27 9.3709 26.2459 10.125 25.3125 10.125H1.6875C0.754102 10.125 0 9.3709 0 8.4375V6.75Z" fill="white"/>
</svg>
