<svg width="27" height="27" viewBox="0 0 27 27" fill="none" xmlns="http://www.w3.org/2000/svg">
<g clip-path="url(#clip0_40004204_2596)">
<path fill-rule="evenodd" clip-rule="evenodd" d="M8.09033 24.3347L7.83325 17.8616L10.7446 17.7451C11.9883 17.9165 13.2473 18.5383 14.5129 19.2656L16.7739 19.1755C17.8 19.1975 18.3779 20.2126 17.4089 20.9333C16.6399 21.5464 15.5918 21.5552 14.5151 21.5002C13.7747 21.4937 13.7812 22.489 14.5525 22.4604C14.8206 22.4714 15.1106 22.3967 15.3633 22.3857C16.7014 22.3308 17.7935 22.032 18.4263 20.9465L18.7339 20.1423L22.032 18.3406C23.6931 17.7188 24.8115 19.2854 23.6206 20.5598C21.2541 22.4297 18.9624 24.1348 16.4531 25.4136C14.6426 26.6155 12.7837 26.6528 10.8853 25.6355L8.09033 24.3347ZM6.53467 14.4712H26.7275C26.877 14.4712 27 14.5964 27 14.7437V15.9324C27 16.0796 26.877 16.2048 26.7275 16.2048H6.53467C6.38525 16.2048 6.26221 16.0818 6.26221 15.9324V14.7437C6.26221 14.5942 6.38525 14.4712 6.53467 14.4712ZM17.4155 3.10254C22.9438 3.54419 27.5999 8.19141 26.9121 13.6626H6.35229C5.67334 8.15625 10.3469 3.50244 15.9148 3.09595V2.20386H15.0359C14.8821 2.20386 14.7546 2.07642 14.7546 1.92261V0.91626C14.7546 0.762451 14.8799 0.63501 15.0359 0.63501H18.2703C18.4241 0.63501 18.5515 0.762451 18.5515 0.91626V1.92261C18.5515 2.07642 18.4241 2.20386 18.2703 2.20386H17.4155V3.10254ZM0 17.6396L6.93237 17.2749L7.23999 25.0203L0.307617 25.3828L0 17.6396Z" fill="white"/>
</g>
<defs>
<clipPath id="clip0_40004204_2596">
<rect width="27" height="27" fill="white"/>
</clipPath>
</defs>
</svg>
