<svg width="27" height="27" viewBox="0 0 27 27" fill="none" xmlns="http://www.w3.org/2000/svg">
<path d="M21.853 22.7811C21.7897 22.5913 20.5769 22.2749 20.5769 22.2749C19.4905 21.8319 19.4905 20.3553 20.5769 19.9018C20.5769 19.9018 21.7265 19.5854 21.853 19.3956C22.0429 19.0159 22.3593 18.1827 22.3593 18.1827C22.5491 17.6764 23.0026 17.4128 23.3823 17.4128C23.3823 15.6198 23.3823 13.8268 23.3823 12.0338C23.3823 11.2006 23.2558 10.3674 23.1187 9.59752C22.1589 4.79869 17.4866 0.759239 11.728 1.33932C9.93506 1.52916 8.33193 2.10924 6.9292 3.00572C7.69912 3.32213 9.16514 3.90221 9.16514 3.90221C10.2515 4.34518 10.2515 5.82174 9.16514 6.27525C9.16514 6.27525 6.99248 6.9819 6.9292 7.17174C6.61279 7.94166 6.03271 9.40768 6.03271 9.40768C5.58975 10.494 4.11318 10.494 3.65967 9.40768L2.96357 7.68854C2.3835 9.03854 2.13037 10.5046 2.13037 12.0444C2.13037 15.3034 2.13037 18.5729 2.13037 21.8319C2.13037 24.2049 3.59639 25.671 6.03271 25.671H11.4749C11.0952 25.5444 10.705 25.4073 10.3253 25.228C6.86592 23.6249 5.21006 19.4061 5.71631 15.6936C5.77959 15.2506 5.97998 15.1135 6.42295 15.0503C9.55537 14.7338 15.894 13.4471 16.6007 10.4413C16.664 10.0616 16.7272 9.73463 16.7905 9.35494C16.9171 9.4815 16.9804 9.61861 16.9804 9.73463C20.5663 14.2171 19.9229 15.9995 19.9229 15.7463C20.0495 16.9592 20.0495 18.1827 19.7331 19.3956C18.9632 22.4647 17.3601 24.7745 14.1011 25.7237H16.8538C17.7503 25.7237 18.7101 25.7237 19.6065 25.7237C20.8827 25.7237 21.9796 25.2174 22.6124 24.3737C22.4858 24.2471 22.4226 24.11 22.3487 23.994C22.3593 23.994 21.9796 23.1713 21.853 22.7811Z" fill="white"/>
<path d="M24.2157 20.3553L23.509 18.6256L22.8129 20.3553L21.0833 21.0514L22.8129 21.758L23.509 23.4877L24.2157 21.758L25.9454 21.0514L24.2157 20.3553Z" fill="white"/>
<path d="M7.39331 18.4885C9.37612 17.0225 11.6753 18.4885 11.6753 18.4885C9.36558 15.2928 7.39331 18.4885 7.39331 18.4885Z" fill="white"/>
<path d="M14.2383 18.4885C16.2211 17.0225 18.5309 18.4885 18.5309 18.4885C16.2211 15.2928 14.2383 18.4885 14.2383 18.4885Z" fill="white"/>
<path d="M4.89375 8.96475L5.98008 6.21201L8.73281 5.12568L5.98008 4.02881L4.89375 1.28662L3.80742 4.02881L1.05469 5.12568L3.80742 6.21201L4.89375 8.96475Z" fill="white"/>
</svg>
